<svg version="1.1" xmlns="http://www.w3.org/2000/svg" xmlns:xlink="http://www.w3.org/1999/xlink" width="48" height="48"><defs><linearGradient x1="8.44322" y1="11.86428" x2="82.90448" y2="79.48342" gradientUnits="userSpaceOnUse" id="color-1"><stop offset="0" stop-color="#000000" stop-opacity="0.55"></stop><stop offset="1" stop-color="#000000" stop-opacity="0"></stop></linearGradient><filter id="dropshadow-base"><feColorMatrix type="matrix" values="0 0 0 0 0  0 0 0 0 0  0 0 0 0 0  0 0 0 .8 0"></feColorMatrix> <feOffset dx="0" dy="1"></feOffset> <feGaussianBlur stdDeviation="1"></feGaussianBlur> <feComposite in="SourceGraphic"></feComposite></filter><filter id="dropshadow-banner" x="-10%" y="-10%" width="120%" height="130%"><feColorMatrix type="matrix" values="0 0 0 0 0  0 0 0 0 0  0 0 0 0 0  0 0 0 .4 0"></feColorMatrix> <feOffset dx="0" dy="1"></feOffset> <feGaussianBlur stdDeviation="0.5"></feGaussianBlur> <feComposite in="SourceGraphic"></feComposite></filter></defs><g fill="none" fill-rule="nonzero" stroke="none" stroke-width="none" stroke-linecap="butt" stroke-linejoin="miter" stroke-miterlimit="10" stroke-dasharray="" stroke-dashoffset="0" font-family="none" font-weight="none" font-size="none" text-anchor="none" style="mix-blend-mode: normal"><path d="M7,43c-1.10457,0 -2,-0.89543 -2,-2v-34c0,-1.10457 0.89543,-2 2,-2h34c1.10457,0 2,0.89543 2,2v34c0,1.10457 -0.89543,2 -2,2z" id="base 1 5" fill="#e58ccc" stroke-width="1"></path><path d="M17.37796,11.86428l2.05029,2.05029v-1.01891h5.9797l0.98504,0.98504v-2.00483h1.5297l1.81856,1.81856l0,-0.69447h2.36407l1.19363,1.19363l1.13568,0l-2.3293,-2.3293h1.54129l1.13568,1.13568h1.25157l2.10913,2.10913l0,-1.70351l-1.5297,-1.5297h1.5297l4.85702,4.85702v24.26711c0,1.10457 -0.89543,2 -2,2l-23.07349,0l-8.68368,-8.68368l-0.79962,-1.20521c1.55127,-0.74593 2.60243,-1.60842 3.26058,-2.64959l-2.69275,-2.69275v-1.2168l5.12216,0.00002l1.63398,1.63398v-2.52723l-6.12711,-6.12711c-0.6544,-0.6544 -1.0578,-1.73193 -1.0578,-3.11302c0,-2.34089 1.17045,-3.80105 2.75808,-3.80105c0.66488,0 1.25223,0.24917 1.70847,0.70542l0.73156,0.73156h2.06793v-2.19024z" fill="url(#color-1)" stroke-width="1"></path><path d="M14.02891,17.36885c0.04635,-0.28971 0.06953,-0.61419 0.06953,-0.95026c0,-0.4056 -0.03477,-0.78802 -0.1043,-1.13568h1.85417v2.08594zM11.34036,18.85219c-0.77643,0 -1.30951,-0.84597 -1.30951,-2.4336c0,-1.57605 0.53307,-2.42201 1.30951,-2.42201c0.78802,0 1.3211,0.84597 1.3211,2.42201c0,1.58764 -0.53307,2.4336 -1.3211,2.4336zM15.84832,11.86427v2.19024h-2.27136c-0.47513,-0.9155 -1.27474,-1.43698 -2.2366,-1.43698c-1.58764,0 -2.75808,1.46016 -2.75808,3.80105c0,2.35248 1.17045,3.82423 2.75808,3.82423c1.03138,0.01159 1.85417,-0.59102 2.3293,-1.63399h2.17865v3.96329h1.52966v-10.70785zM23.20612,14.15881h2.20183v-1.26316h-5.97971v1.26316h2.22501v0.59102c0,1.81941 -0.86914,3.77788 -2.65378,4.57749l0.86914,1.2168c1.25157,-0.56784 2.10912,-1.73829 2.58425,-3.12892c0.47513,1.28633 1.3211,2.3293 2.56108,2.86238l0.83438,-1.20521c-1.78464,-0.74167 -2.6422,-2.58425 -2.6422,-4.32254zM26.39298,11.87586v10.67308h1.52969v-10.67308zM36.03385,12.99996h-2.38725v-1.13568h-1.54128v1.13568h-2.36407v1.19362h6.28101zM31.7229,16.62718c0,-0.57943 0.47513,-0.89232 1.15886,-0.89232c0.67214,0 1.15886,0.31289 1.15886,0.89232c0,0.59102 -0.48672,0.90391 -1.15886,0.90391c-0.68373,0 -1.15886,-0.31289 -1.15886,-0.90391zM35.50078,16.62718c0,-1.20521 -1.08933,-2.05118 -2.61902,-2.05118c-1.52969,0 -2.61902,0.84597 -2.61902,2.05118c0,1.22839 1.08933,2.06277 2.61902,2.06277c1.52969,0 2.61902,-0.83438 2.61902,-2.06277zM32.78905,19.26938h-1.52969v3.09415h7.26604v-1.2168h-5.73635zM38.14297,15.13225v-3.25639h-1.52969v7.98453h1.52969v-3.46499h1.41381v-1.26316zM9.01106,26.55197v1.2168h3.55769c-0.22018,2.36407 -1.40222,4.03283 -4.12553,5.34233l0.79961,1.20521c3.78947,-1.831 4.89038,-4.49637 4.89038,-7.76435zM15.7672,25.43947v10.67308h1.54125v-10.67308zM21.72279,33.29652h4.34572v1.50652h-4.34572zM20.21627,35.99666h7.34716v-3.89376h-7.34716zM27.36642,29.7736c0.24336,-1.22839 0.24336,-2.1323 0.24336,-2.98985v-0.85755h-7.33557v1.2168h5.82906c0,0.74167 -0.03477,1.56446 -0.25495,2.63061h-6.76773v1.2168h9.66487v-1.2168zM30.15844,26.14637v1.2168h3.37228c-0.23177,1.46016 -1.54128,2.66537 -3.87059,3.29116l0.61419,1.22839c3.15209,-0.88073 4.93673,-2.86238 4.93673,-5.73635zM34.67799,34.9421c-1.29792,0 -2.07436,-0.33607 -2.07436,-0.99662c0,-0.66055 0.77643,-0.99662 2.07436,-0.99662c1.29792,0 2.07436,0.33607 2.07436,0.99662c0,0.66055 -0.77643,0.99662 -2.07436,0.99662zM34.67799,31.75524c-2.15548,0 -3.58087,0.84597 -3.58087,2.19024c0,1.34428 1.4254,2.19024 3.58087,2.19024c2.15548,0 3.58087,-0.84597 3.58087,-2.19024c0,-1.34428 -1.4254,-2.19024 -3.58087,-2.19024zM38.14297,27.9426v-2.50313h-1.52969v6.17671h1.52969v-2.41042h1.41381v-1.26316z" fill="none" stroke-width="0"></path><path d="M15.84832,17.36885v-2.08594h-1.85417c0.06953,0.34766 0.1043,0.73008 0.1043,1.13568c0,0.33607 -0.02318,0.66055 -0.06953,0.95026zM12.66146,16.41859c0,-1.57605 -0.53307,-2.42201 -1.3211,-2.42201c-0.77643,0 -1.30951,0.84597 -1.30951,2.42201c0,1.58764 0.53307,2.4336 1.30951,2.4336c0.78802,0 1.3211,-0.84597 1.3211,-2.4336zM17.37798,11.86427v10.70785h-1.52966v-3.96329h-2.17865c-0.47513,1.04297 -1.29792,1.64558 -2.3293,1.63399c-1.58764,0 -2.75808,-1.47175 -2.75808,-3.82423c0,-2.34089 1.17045,-3.80105 2.75808,-3.80105c0.96185,0 1.76146,0.52149 2.2366,1.43698h2.27136v-2.19024zM23.20612,14.74983c0,1.73829 0.85755,3.58087 2.6422,4.32254l-0.83438,1.20521c-1.23998,-0.53307 -2.08594,-1.57605 -2.56108,-2.86238c-0.47513,1.39063 -1.33269,2.56108 -2.58425,3.12892l-0.86914,-1.2168c1.78464,-0.79961 2.65378,-2.75808 2.65378,-4.57749v-0.59102h-2.22501v-1.26316h5.97971v1.26316h-2.20183zM27.92268,11.87586v10.67308h-1.52969v-10.67308zM36.02226,14.19358h-6.28101v-1.19362h2.36407v-1.13568h1.54128v1.13568h2.38725zM32.88176,17.53109c0.67214,0 1.15886,-0.31289 1.15886,-0.90391c0,-0.57943 -0.48672,-0.89232 -1.15886,-0.89232c-0.68373,0 -1.15886,0.31289 -1.15886,0.89232c0,0.59102 0.47513,0.90391 1.15886,0.90391zM32.88176,18.68995c-1.52969,0 -2.61902,-0.83438 -2.61902,-2.06277c0,-1.20521 1.08933,-2.05118 2.61902,-2.05118c1.52969,0 2.61902,0.84597 2.61902,2.05118c0,1.22839 -1.08933,2.06277 -2.61902,2.06277zM32.78905,21.14673h5.73635v1.2168h-7.26604v-3.09415h1.52969zM39.55678,15.13225v1.26316h-1.41381v3.46499h-1.52969v-7.98453h1.52969v3.25639zM14.13321,26.55197c0,3.26798 -1.10092,5.93335 -4.89038,7.76435l-0.79961,-1.20521c2.72332,-1.30951 3.90535,-2.97826 4.12553,-5.34233h-3.55769v-1.2168zM17.30845,25.43947v10.67308h-1.54125v-10.67308zM21.72279,34.80304h4.34572v-1.50652h-4.34572zM20.21627,32.1029h7.34716v3.89376h-7.34716zM28.74546,29.7736v1.2168h-9.66487v-1.2168h6.76773c0.22018,-1.06615 0.25495,-1.88894 0.25495,-2.63061h-5.82906v-1.2168h7.33557v0.85755c0,0.85755 0,1.76146 -0.24336,2.98985zM35.21106,26.14637c0,2.87397 -1.78464,4.85561 -4.93673,5.73635l-0.61419,-1.22839c2.3293,-0.62578 3.63881,-1.831 3.87059,-3.29116h-3.37228v-1.2168zM36.75235,33.94548c0,-0.66055 -0.77643,-0.99662 -2.07436,-0.99662c-1.29792,0 -2.07436,0.33607 -2.07436,0.99662c0,0.66055 0.77643,0.99662 2.07436,0.99662c1.29792,0 2.07436,-0.33607 2.07436,-0.99662zM38.25886,33.94548c0,1.34428 -1.4254,2.19024 -3.58087,2.19024c-2.15548,0 -3.58087,-0.84597 -3.58087,-2.19024c0,-1.34428 1.4254,-2.19024 3.58087,-2.19024c2.15548,0 3.58087,0.84597 3.58087,2.19024zM39.55678,27.9426v1.26316h-1.41381v2.41042h-1.52969v-6.17671h1.52969v2.50313z" fill="#ffffff" stroke-width="0"></path><path d="M2,24c0,-12.15026 9.84974,-22 22,-22c12.15026,0 22,9.84974 22,22c0,12.15026 -9.84974,22 -22,22c-12.15026,0 -22,-9.84974 -22,-22z" id="base 1 1 1" fill="none" stroke-width="1"></path><g fill="none" stroke-width="1" font-family="Roboto, sans-serif" font-weight="400" font-size="14" text-anchor="start"></g><rect x="2" y="2" width="44" height="22" fill="none" stroke-width="1"></rect><path d="M2,24v-22h44v22z" fill="none" stroke-width="1"></path><path d="M2,24v-22h44v22z" fill="none" stroke-width="1"></path><path d="M2,24v-22h44v22z" fill="none" stroke-width="1"></path><path d="M2,24v-22h44v22z" fill="none" stroke-width="1"></path></g></svg>