<svg width="377" height="295" viewBox="0 0 377 295" fill="none" xmlns="http://www.w3.org/2000/svg">
<path d="M68.0964 67.46C68.6564 63.96 68.9364 60.04 68.9364 55.98C68.9364 51.08 68.5164 46.46 67.6764 42.26H90.0764V67.46H68.0964ZM35.6164 85.38C26.2364 85.38 19.7964 75.16 19.7964 55.98C19.7964 36.94 26.2364 26.72 35.6164 26.72C45.1364 26.72 51.5764 36.94 51.5764 55.98C51.5764 75.16 45.1364 85.38 35.6164 85.38ZM90.0764 0.959996V27.42H62.6364C56.8964 16.36 47.2364 10.06 35.6164 10.06C16.4364 10.06 2.29641 27.7 2.29641 55.98C2.29641 84.4 16.4364 102.18 35.6164 102.18C48.0764 102.32 58.0164 95.04 63.7564 82.44H90.0764V130.32H108.556V0.959996H90.0764ZM178.965 28.68H205.565V13.42H133.325V28.68H160.205V35.82C160.205 57.8 149.705 81.46 128.145 91.12L138.645 105.82C153.765 98.96 164.125 84.82 169.865 68.02C175.605 83.56 185.825 96.16 200.805 102.6L210.885 88.04C189.325 79.08 178.965 56.82 178.965 35.82V28.68ZM217.465 1.09999V130.04H235.945V1.09999H217.465ZM333.935 14.68H305.095V0.959996H286.475V14.68H257.915V29.1H333.795L333.935 14.68ZM281.855 58.5C281.855 51.5 287.595 47.72 295.855 47.72C303.975 47.72 309.855 51.5 309.855 58.5C309.855 65.64 303.975 69.42 295.855 69.42C287.595 69.42 281.855 65.64 281.855 58.5ZM327.495 58.5C327.495 43.94 314.335 33.72 295.855 33.72C277.375 33.72 264.215 43.94 264.215 58.5C264.215 73.34 277.375 83.42 295.855 83.42C314.335 83.42 327.495 73.34 327.495 58.5ZM294.735 90.42H276.255V127.8H364.035V113.1H294.735V90.42ZM359.415 40.44V1.09999H340.935V97.56H359.415V55.7H376.495V40.44H359.415ZM7.47641 178.4V193.1H50.4564C47.7964 221.66 33.5164 241.82 0.616407 257.64L10.2764 272.2C56.0564 250.08 69.3564 217.88 69.3564 178.4H7.47641ZM89.0964 164.96V293.9H107.716V164.96H89.0964ZM161.045 259.88H213.545V278.08H161.045V259.88ZM142.845 292.5H231.605V245.46H142.845V292.5ZM229.225 217.32C232.165 202.48 232.165 191.56 232.165 181.2V170.84H143.545V185.54H213.965C213.965 194.5 213.545 204.44 210.885 217.32H129.125V232.02H245.885V217.32H229.225ZM262.955 173.5V188.2H303.695C300.895 205.84 285.075 220.4 256.935 227.96L264.355 242.8C302.435 232.16 323.995 208.22 323.995 173.5H262.955ZM317.555 279.76C301.875 279.76 292.495 275.7 292.495 267.72C292.495 259.74 301.875 255.68 317.555 255.68C333.235 255.68 342.615 259.74 342.615 267.72C342.615 275.7 333.235 279.76 317.555 279.76ZM317.555 241.26C291.515 241.26 274.295 251.48 274.295 267.72C274.295 283.96 291.515 294.18 317.555 294.18C343.595 294.18 360.815 283.96 360.815 267.72C360.815 251.48 343.595 241.26 317.555 241.26ZM359.415 195.2V164.96H340.935V239.58H359.415V210.46H376.495V195.2H359.415Z" fill="black"/>
</svg>
